<svg xmlns="http://www.w3.org/2000/svg" viewBox="0 0 800 700">
  <defs>
    <marker id="arrow" markerWidth="10" markerHeight="10" refX="0" refY="3" orient="auto" markerUnits="strokeWidth">
      <path d="M0,0 L0,6 L9,3 z" fill="#000"/>
    </marker>
    <marker id="dashedArrow" markerWidth="10" markerHeight="10" refX="0" refY="3" orient="auto" markerUnits="strokeWidth">
      <path d="M0,0 L0,6 L9,3 z" fill="#666"/>
    </marker>
  </defs>
  
  <!-- Headers -->
  <rect x="50" y="10" width="100" height="30" fill="#001f3f" stroke="#000"/>
  <text x="100" y="30" text-anchor="middle" fill="white">사용자</text>
  
  <rect x="200" y="10" width="100" height="30" fill="#001f3f" stroke="#000"/>
  <text x="250" y="30" text-anchor="middle" fill="white">프론트엔드</text>
  
  <rect x="350" y="10" width="100" height="30" fill="#001f3f" stroke="#000"/>
  <text x="400" y="30" text-anchor="middle" fill="white">백엔드 서버</text>
  
  <rect x="500" y="10" width="100" height="30" fill="#001f3f" stroke="#000"/>
  <text x="550" y="30" text-anchor="middle" fill="white">AI 모델</text>
  
  <rect x="650" y="10" width="100" height="30" fill="#001f3f" stroke="#000"/>
  <text x="700" y="30" text-anchor="middle" fill="white">데이터베이스</text>

  <!-- Lifelines -->
  <line x1="100" y1="40" x2="100" y2="680" stroke="#000" stroke-dasharray="5,5"/>
  <line x1="250" y1="40" x2="250" y2="680" stroke="#000" stroke-dasharray="5,5"/>
  <line x1="400" y1="40" x2="400" y2="680" stroke="#000" stroke-dasharray="5,5"/>
  <line x1="550" y1="40" x2="550" y2="680" stroke="#000" stroke-dasharray="5,5"/>
  <line x1="700" y1="40" x2="700" y2="680" stroke="#000" stroke-dasharray="5,5"/>

  <!-- Step 1: 질문 입력 -->
  <rect x="0" y="50" width="800" height="30" fill="#0074D9" stroke="#000"/>
  <text x="400" y="70" text-anchor="middle" fill="white">Step 1: 질문 입력 (동기 처리)</text>

  <line x1="100" y1="100" x2="250" y2="100" stroke="#000" marker-end="url(#arrow)"/>
  <text x="175" y="95" text-anchor="middle" font-size="12">1. 질문 입력</text>

  <line x1="250" y1="120" x2="400" y2="120" stroke="#000" marker-end="url(#arrow)"/>
  <text x="325" y="115" text-anchor="middle" font-size="12">2. 질문 전송 (API 요청)</text>

  <!-- Step 2: 질문 처리 -->
  <rect x="0" y="150" width="800" height="30" fill="#0074D9" stroke="#000"/>
  <text x="400" y="170" text-anchor="middle" fill="white">Step 2: 질문 처리 (동기 처리)</text>

  <line x1="400" y1="200" x2="550" y2="200" stroke="#000" marker-end="url(#arrow)"/>
  <text x="475" y="195" text-anchor="middle" font-size="12">3. 질문 분석 요청</text>

  <line x1="550" y1="220" x2="550" y2="240" stroke="#000" marker-end="url(#arrow)"/>
  <text x="600" y="230" text-anchor="start" font-size="12">4. 질문 분석</text>

  <line x1="550" y1="260" x2="550" y2="280" stroke="#000" marker-end="url(#arrow)"/>
  <text x="600" y="270" text-anchor="start" font-size="12">5. 답변 생성</text>

  <line x1="550" y1="300" x2="400" y2="300" stroke="#000" marker-end="url(#arrow)"/>
  <text x="475" y="295" text-anchor="middle" font-size="12">6. 답변 반환</text>

  <!-- Step 3: 답변 저장 및 반환 -->
  <rect x="0" y="330" width="800" height="30" fill="#0074D9" stroke="#000"/>
  <text x="400" y="350" text-anchor="middle" fill="white">Step 3: 답변 저장 및 반환</text>

  <line x1="400" y1="380" x2="700" y2="380" stroke="#666" stroke-dasharray="5,5" marker-end="url(#dashedArrow)"/>
  <text x="550" y="375" text-anchor="middle" font-size="12">7. 질문/답변 저장 (비동기)</text>

  <line x1="700" y1="400" x2="400" y2="400" stroke="#666" stroke-dasharray="5,5" marker-end="url(#dashedArrow)"/>
  <text x="550" y="395" text-anchor="middle" font-size="12">8. 저장 확인 (비동기)</text>

  <line x1="400" y1="420" x2="250" y2="420" stroke="#000" marker-end="url(#arrow)"/>
  <text x="325" y="415" text-anchor="middle" font-size="12">9. 답변 전송</text>

  <!-- Step 4: 답변 표시 -->
  <rect x="0" y="450" width="800" height="30" fill="#0074D9" stroke="#000"/>
  <text x="400" y="470" text-anchor="middle" fill="white">Step 4: 답변 표시</text>

  <line x1="250" y1="500" x2="250" y2="520" stroke="#000" marker-end="url(#arrow)"/>
  <text x="300" y="510" text-anchor="start" font-size="12">10. 답변 렌더링</text>

  <line x1="250" y1="540" x2="100" y2="540" stroke="#000" marker-end="url(#arrow)"/>
  <text x="175" y="535" text-anchor="middle" font-size="12">11. 답변 표시</text>

  <!-- Error Handling: 에러 처리 흐름 추가 -->
  <line x1="250" y1="130" x2="100" y2="150" stroke="#FF4136" marker-end="url(#arrow)" stroke-dasharray="5,5"/>
  <text x="175" y="145" text-anchor="middle" font-size="12" fill="#FF4136">프론트엔드 에러</text>

  <line x1="400" y1="310" x2="250" y2="340" stroke="#FF4136" marker-end="url(#arrow)" stroke-dasharray="5,5"/>
  <text x="325" y="335" text-anchor="middle" font-size="12" fill="#FF4136">백엔드 서버 에러</text>

  <line x1="550" y1="290" x2="700" y2="340" stroke="#FF4136" marker-end="url(#arrow)" stroke-dasharray="5,5"/>
  <text x="625" y="325" text-anchor="middle" font-size="12" fill="#FF4136">AI 모델 에러</text>

  <!-- General Error Handling -->
  <rect x="0" y="580" width="800" height="50" fill="#FF4136" stroke="#000"/>
  <text x="400" y="605" text-anchor="middle" fill="white" font-size="14">에러 처리: 각 단계에서 에러 발생 시 사용자에게 피드백 제공</text>
</svg>
